<svg xmlns="http://www.w3.org/2000/svg" xmlns:xlink="http://www.w3.org/1999/xlink" aria-hidden="true" role="img" class="iconify iconify--gg" width="32" height="32" preserveAspectRatio="xMidYMid meet" viewBox="0 0 24 24"><g fill="none"><path d="M2 5.995c0-.55.446-.995.995-.995h8.01a.995.995 0 0 1 0 1.99h-8.01A.995.995 0 0 1 2 5.995z" fill="currentColor"></path><path d="M2 12c0-.55.446-.995.995-.995h18.01a.995.995 0 1 1 0 1.99H2.995A.995.995 0 0 1 2 12z" fill="currentColor"></path><path d="M2.995 17.01a.995.995 0 0 0 0 1.99h12.01a.995.995 0 0 0 0-1.99H2.995z" fill="currentColor"></path></g></svg>